REM DIRINDEX 1\2,1\4,1\5,1\6,1\7,1\3\8,1\3\9,1\3\10
REM DIRNAME folder01,folder02,folder03,folder04,folder05,folder06,folder07,folder08,folder09,folder10
TITLE ""
FILE "DB4500_5th_6C_39.mp3" MP3
  TRACK 01 AUDIO
    TITLE "0:"
    INDEX 01 00:00:00
  TRACK 02 AUDIO
    TITLE "8:cjc113_4854"
    INDEX 01 00:00:03
  TRACK 03 AUDIO
    TITLE "0:"
    INDEX 01 00:01:07
  TRACK 04 AUDIO
    TITLE "9:cjc113_4855"
    INDEX 01 00:01:17
  TRACK 05 AUDIO
    TITLE "0:"
    INDEX 01 00:02:26
  TRACK 06 AUDIO
    TITLE "10:cjc113_4856"
    INDEX 01 00:02:36
  TRACK 07 AUDIO
    TITLE "0:"
    INDEX 01 00:05:50
  TRACK 08 AUDIO
    TITLE "8:cjc113_4857"
    INDEX 01 00:06:06
  TRACK 09 AUDIO
    TITLE "0:"
    INDEX 01 00:07:13
  TRACK 10 AUDIO
    TITLE "9:cjc113_4858"
    INDEX 01 00:07:21
  TRACK 11 AUDIO
    TITLE "0:"
    INDEX 01 00:08:26
  TRACK 12 AUDIO
    TITLE "10:cjc113_4859"
    INDEX 01 00:08:34
  TRACK 13 AUDIO
    TITLE "0:"
    INDEX 01 00:10:63
  TRACK 14 AUDIO
    TITLE "8:cjc113_4860"
    INDEX 01 00:11:23
  TRACK 15 AUDIO
    TITLE "0:"
    INDEX 01 00:12:38
  TRACK 16 AUDIO
    TITLE "9:cjc113_4861"
    INDEX 01 00:12:46
  TRACK 17 AUDIO
    TITLE "0:"
    INDEX 01 00:14:13
  TRACK 18 AUDIO
    TITLE "10:cjc113_4862"
    INDEX 01 00:14:21
  TRACK 19 AUDIO
    TITLE "0:"
    INDEX 01 00:17:45
  TRACK 20 AUDIO
    TITLE "8:cjc113_4863"
    INDEX 01 00:18:01
  TRACK 21 AUDIO
    TITLE "0:"
    INDEX 01 00:19:16
  TRACK 22 AUDIO
    TITLE "9:cjc113_4864"
    INDEX 01 00:19:24
  TRACK 23 AUDIO
    TITLE "0:"
    INDEX 01 00:20:14
  TRACK 24 AUDIO
    TITLE "10:cjc113_4865"
    INDEX 01 00:20:24
  TRACK 25 AUDIO
    TITLE "0:"
    INDEX 01 00:24:18
  TRACK 26 AUDIO
    TITLE "8:cjc113_4866"
    INDEX 01 00:24:45
  TRACK 27 AUDIO
    TITLE "0:"
    INDEX 01 00:25:54
  TRACK 28 AUDIO
    TITLE "9:cjc113_4867"
    INDEX 01 00:25:70
  TRACK 29 AUDIO
    TITLE "0:"
    INDEX 01 00:27:32
  TRACK 30 AUDIO
    TITLE "10:cjc113_4868"
    INDEX 01 00:27:47
  TRACK 31 AUDIO
    TITLE "0:"
    INDEX 01 00:31:04
  TRACK 32 AUDIO
    TITLE "8:cjc113_4869"
    INDEX 01 00:31:41
  TRACK 33 AUDIO
    TITLE "0:"
    INDEX 01 00:33:64
  TRACK 34 AUDIO
    TITLE "9:cjc113_4870"
    INDEX 01 00:34:06
  TRACK 35 AUDIO
    TITLE "0:"
    INDEX 01 00:35:49
  TRACK 36 AUDIO
    TITLE "10:cjc113_4871"
    INDEX 01 00:35:64
  TRACK 37 AUDIO
    TITLE "0:"
    INDEX 01 00:39:27
  TRACK 38 AUDIO
    TITLE "8:cjc113_4872"
    INDEX 01 00:39:68
  TRACK 39 AUDIO
    TITLE "0:"
    INDEX 01 00:41:06
  TRACK 40 AUDIO
    TITLE "9:cjc113_4873"
    INDEX 01 00:41:22
  TRACK 41 AUDIO
    TITLE "0:"
    INDEX 01 00:42:49
  TRACK 42 AUDIO
    TITLE "10:cjc113_4874"
    INDEX 01 00:42:61
  TRACK 43 AUDIO
    TITLE "0:"
    INDEX 01 00:45:24
  TRACK 44 AUDIO
    TITLE "8:cjc113_4875"
    INDEX 01 00:45:65
  TRACK 45 AUDIO
    TITLE "0:"
    INDEX 01 00:47:07
  TRACK 46 AUDIO
    TITLE "9:cjc113_4876"
    INDEX 01 00:47:27
  TRACK 47 AUDIO
    TITLE "0:"
    INDEX 01 00:48:44
  TRACK 48 AUDIO
    TITLE "10:cjc113_4877"
    INDEX 01 00:48:61
  TRACK 49 AUDIO
    TITLE "0:"
    INDEX 01 00:51:11
  TRACK 50 AUDIO
    TITLE "8:cjc113_4878"
    INDEX 01 00:51:52
  TRACK 51 AUDIO
    TITLE "0:"
    INDEX 01 00:52:59
  TRACK 52 AUDIO
    TITLE "9:cjc113_4879"
    INDEX 01 00:53:02
  TRACK 53 AUDIO
    TITLE "0:"
    INDEX 01 00:54:13
  TRACK 54 AUDIO
    TITLE "10:cjc113_4880"
    INDEX 01 00:54:30
  TRACK 55 AUDIO
    TITLE "0:"
    INDEX 01 00:56:63
  TRACK 56 AUDIO
    TITLE "10:cjc113_4881"
    INDEX 01 00:57:23
  TRACK 57 AUDIO
    TITLE "0:"
    INDEX 01 01:00:41
  TRACK 58 AUDIO
    TITLE "8:cjc113_4882"
    INDEX 01 01:01:07
  TRACK 59 AUDIO
    TITLE "0:"
    INDEX 01 01:02:18
  TRACK 60 AUDIO
    TITLE "9:cjc113_4883"
    INDEX 01 01:02:34
  TRACK 61 AUDIO
    TITLE "0:"
    INDEX 01 01:04:13
  TRACK 62 AUDIO
    TITLE "10:cjc113_4884"
    INDEX 01 01:04:29
  TRACK 63 AUDIO
    TITLE "0:"
    INDEX 01 01:06:71
  TRACK 64 AUDIO
    TITLE "8:cjc113_4885"
    INDEX 01 01:07:33
  TRACK 65 AUDIO
    TITLE "0:"
    INDEX 01 01:08:40
  TRACK 66 AUDIO
    TITLE "9:cjc113_4886"
    INDEX 01 01:08:54
  TRACK 67 AUDIO
    TITLE "0:"
    INDEX 01 01:12:32
  TRACK 68 AUDIO
    TITLE "10:cjc113_4887"
    INDEX 01 01:12:46
  TRACK 69 AUDIO
    TITLE "0:"
    INDEX 01 01:15:74
  TRACK 70 AUDIO
    TITLE "8:cjc113_4888"
    INDEX 01 01:16:40
  TRACK 71 AUDIO
    TITLE "0:"
    INDEX 01 01:17:45
  TRACK 72 AUDIO
    TITLE "9:cjc113_4889"
    INDEX 01 01:17:61
  TRACK 73 AUDIO
    TITLE "0:"
    INDEX 01 01:19:15
  TRACK 74 AUDIO
    TITLE "10:cjc113_4890"
    INDEX 01 01:19:30
  TRACK 75 AUDIO
    TITLE "0:"
    INDEX 01 01:21:53
  TRACK 76 AUDIO
    TITLE "8:cjc113_4891"
    INDEX 01 01:22:15
  TRACK 77 AUDIO
    TITLE "0:"
    INDEX 01 01:23:22
  TRACK 78 AUDIO
    TITLE "9:cjc113_4892"
    INDEX 01 01:23:36
  TRACK 79 AUDIO
    TITLE "0:"
    INDEX 01 01:24:65
  TRACK 80 AUDIO
    TITLE "10:cjc113_4893"
    INDEX 01 01:25:08
  TRACK 81 AUDIO
    TITLE "0:"
    INDEX 01 01:28:16
  TRACK 82 AUDIO
    TITLE "8:cjc113_4894"
    INDEX 01 01:28:55
  TRACK 83 AUDIO
    TITLE "0:"
    INDEX 01 01:29:62
  TRACK 84 AUDIO
    TITLE "9:cjc113_4895"
    INDEX 01 01:30:05
  TRACK 85 AUDIO
    TITLE "0:"
    INDEX 01 01:31:28
  TRACK 86 AUDIO
    TITLE "10:cjc113_4896"
    INDEX 01 01:31:43
  TRACK 87 AUDIO
    TITLE "0:"
    INDEX 01 01:36:33
